<svg width="63" height="66" viewBox="0 0 63 66" fill="none" xmlns="http://www.w3.org/2000/svg">
<path d="M3.34216 12.4736V31.421C3.34216 31.421 3.34216 40.8947 25.4474 40.8947C47.5527 40.8947 47.5527 31.421 47.5527 31.421V12.4736" stroke="white" stroke-width="5" stroke-linecap="round" stroke-linejoin="round"/>
<path d="M25.4474 3C47.5527 3 47.5527 12.4737 47.5527 12.4737C47.5527 12.4737 47.5527 21.9474 25.4474 21.9474C3.34216 21.9474 3.34216 12.4737 3.34216 12.4737C3.34216 12.4737 3.34216 3 25.4474 3Z" stroke="white" stroke-width="5" stroke-linecap="round" stroke-linejoin="round"/>
<path d="M25.4474 59.8421C3.34216 59.8421 3.34216 50.3684 3.34216 50.3684V31.421" stroke="white" stroke-width="5" stroke-linecap="round" stroke-linejoin="round"/>
<path d="M47.5527 63H52.2895H57.0263M52.2895 54.8798H59.6578V44.0526H44.9209V54.8798H52.2895Z" stroke="white" stroke-width="5" stroke-linecap="round" stroke-linejoin="round"/>
</svg>
