<svg width="61" height="60" viewBox="0 0 61 60" fill="none" xmlns="http://www.w3.org/2000/svg">
<g clip-path="url(#clip0_17_39)">
<path d="M9.5 1.5H51.5C55.6421 1.5 59 4.85786 59 9V51C59 55.1421 55.6421 58.5 51.5 58.5H9.5C5.35786 58.5 2 55.1421 2 51V9C2 4.85786 5.35786 1.5 9.5 1.5Z" stroke="white" stroke-width="3"/>
<path d="M35.1875 26.4844H40.1094H35.1875ZM29.3281 26.4844H34.25H29.3281ZM23.5859 26.4844H28.5078H23.5859ZM17.8438 26.4844H22.6484H17.8438ZM11.9844 26.4844H16.9062H11.9844ZM17.8438 21.0938H22.6484H17.8438ZM23.5859 21.0938H28.5078H23.5859ZM29.3281 21.0938H34.25H29.3281ZM29.3281 15.7031H34.25H29.3281Z" fill="black"/>
<path d="M35.1875 26.4844H40.1094M29.3281 26.4844H34.25M23.5859 26.4844H28.5078M17.8438 26.4844H22.6484M11.9844 26.4844H16.9062M17.8438 21.0938H22.6484M23.5859 21.0938H28.5078M29.3281 21.0938H34.25M29.3281 15.7031H34.25" stroke="white" stroke-width="5"/>
<path d="M55.8125 26.7188C55.8125 26.7188 53.7031 24.7266 49.3672 25.4297C48.8984 22.0312 45.2656 20.0391 45.2656 20.0391C45.2656 20.0391 41.8672 24.1406 44.3281 28.7109C43.625 29.0625 42.4531 29.5312 40.6953 29.5312H8.46874C7.8828 31.7578 7.8828 46.5234 24.0547 46.5234C35.6562 46.5234 44.3281 41.1328 48.4297 31.2891C54.5234 31.7578 55.8125 26.7188 55.8125 26.7188Z" fill="white"/>
</g>
<defs>
<clipPath id="clip0_17_39">
<rect width="60" height="60" fill="white" transform="translate(0.5)"/>
</clipPath>
</defs>
</svg>
