<svg width="61" height="60" viewBox="0 0 61 60" fill="none" xmlns="http://www.w3.org/2000/svg">
<g clip-path="url(#clip0_17_6)">
<path d="M60.1748 13.2001H59.1548C57.8936 13.2001 56.7056 13.7881 55.9388 14.7889L45.4988 28.4413L35.0588 14.7889C34.2944 13.7881 33.1052 13.2001 31.8452 13.2001H30.8252L43.9904 30.4153L30.5432 48.0001H31.5632C32.8244 48.0001 34.0124 47.4121 34.778 46.4113L45.5 32.3905L56.222 46.4113C56.9876 47.4121 58.1756 48.0001 59.4368 48.0001H60.4568L47.0096 30.4153L60.1748 13.2001ZM26.0468 41.0905C22.982 45.7477 16.9484 48.1345 11.18 46.0297C6.1052 44.1781 2.9 39.1333 2.9 33.7309V32.4001H17.3H30.5V27.4393C30.5 19.6333 24.7184 12.7993 16.946 12.0685C8.0276 11.2297 0.5 18.2521 0.5 27.0001V33.6877C0.5 40.1329 4.358 46.1245 10.4228 48.3073C18.3464 51.1585 26.6804 46.9033 29.498 39.6001H28.7324C27.6392 39.6001 26.6468 40.1773 26.0468 41.0905ZM2.9 27.0001C2.9 20.0521 8.552 14.4001 15.5 14.4001C22.448 14.4001 28.1 20.0521 28.1 27.0001V30.0001H2.9V27.0001Z" fill="white"/>
</g>
<defs>
<clipPath id="clip0_17_6">
<rect width="60" height="60" fill="white" transform="translate(0.5)"/>
</clipPath>
</defs>
</svg>
