<svg width="45" height="66" viewBox="0 0 45 66" fill="none" xmlns="http://www.w3.org/2000/svg">
<path d="M2.5 13C2.5 10.3478 3.55357 7.8043 5.42893 5.92893C7.3043 4.05357 9.84783 3 12.5 3H22.5V23H12.5C9.84783 23 7.3043 21.9464 5.42893 20.0711C3.55357 18.1957 2.5 15.6522 2.5 13Z" stroke="white" stroke-width="5" stroke-linecap="round" stroke-linejoin="round"/>
<path d="M22.5 3H32.5C33.8133 3 35.1137 3.25867 36.327 3.7612C37.54 4.26377 38.6423 5.00033 39.571 5.92893C40.4997 6.85753 41.2363 7.9599 41.7387 9.17317C42.2413 10.3864 42.5 11.6868 42.5 13C42.5 14.3132 42.2413 15.6136 41.7387 16.8268C41.2363 18.0401 40.4997 19.1425 39.571 20.0711C38.6423 20.9997 37.54 21.7362 36.327 22.2388C35.1137 22.7413 33.8133 23 32.5 23H22.5V3Z" stroke="white" stroke-width="5" stroke-linecap="round" stroke-linejoin="round"/>
<path d="M22.5 33C22.5 31.6867 22.7587 30.3863 23.2613 29.173C23.7637 27.96 24.5003 26.8577 25.429 25.9289C26.3577 25.0003 27.46 24.2638 28.673 23.7612C29.8863 23.2587 31.1867 23 32.5 23C33.8133 23 35.1137 23.2587 36.327 23.7612C37.54 24.2638 38.6423 25.0003 39.571 25.9289C40.4997 26.8577 41.2363 27.96 41.7387 29.173C42.2413 30.3863 42.5 31.6867 42.5 33C42.5 34.3133 42.2413 35.6137 41.7387 36.827C41.2363 38.04 40.4997 39.1423 39.571 40.071C38.6423 40.9997 37.54 41.7363 36.327 42.2387C35.1137 42.7413 33.8133 43 32.5 43C31.1867 43 29.8863 42.7413 28.673 42.2387C27.46 41.7363 26.3577 40.9997 25.429 40.071C24.5003 39.1423 23.7637 38.04 23.2613 36.827C22.7587 35.6137 22.5 34.3133 22.5 33Z" stroke="white" stroke-width="5" stroke-linecap="round" stroke-linejoin="round"/>
<path d="M2.5 53C2.5 50.348 3.55357 47.8043 5.42893 45.929C7.3043 44.0537 9.84783 43 12.5 43H22.5V53C22.5 55.652 21.4463 58.1957 19.571 60.071C17.6957 61.9463 15.1522 63 12.5 63C9.84783 63 7.3043 61.9463 5.42893 60.071C3.55357 58.1957 2.5 55.652 2.5 53Z" stroke="white" stroke-width="5" stroke-linecap="round" stroke-linejoin="round"/>
<path d="M2.5 33C2.5 30.348 3.55357 27.8043 5.42893 25.9289C7.3043 24.0536 9.84783 23 12.5 23H22.5V43H12.5C9.84783 43 7.3043 41.9463 5.42893 40.071C3.55357 38.1957 2.5 35.652 2.5 33Z" stroke="white" stroke-width="5" stroke-linecap="round" stroke-linejoin="round"/>
</svg>
