<svg width="65" height="64" viewBox="0 0 65 64" fill="none" xmlns="http://www.w3.org/2000/svg">
<path d="M32.5 62C49.0684 62 62.5 48.5684 62.5 32C62.5 15.4314 49.0684 2 32.5 2C15.9314 2 2.5 15.4314 2.5 32C2.5 48.5684 15.9314 62 32.5 62Z" stroke="white" stroke-width="4" stroke-linecap="round" stroke-linejoin="round"/>
<path d="M39.4999 53V47.411C39.5749 46.4825 39.4462 45.5489 39.1219 44.6726C38.7979 43.7963 38.2858 42.9971 37.6201 42.3284C43.9 41.6468 50.5 39.3293 50.5 28.6967C50.4994 25.9777 49.4254 23.363 47.5 21.3938C48.4117 19.0151 48.3472 16.3858 47.32 14.0522C47.32 14.0522 44.9599 13.3706 39.4999 16.9343C34.9159 15.7246 30.0841 15.7246 25.5 16.9343C20.04 13.3706 17.68 14.0522 17.68 14.0522C16.6527 16.3858 16.5883 19.0151 17.5 21.3938C15.5602 23.3776 14.485 26.0159 14.5 28.7549C14.5 39.3098 21.1 41.6273 27.3799 42.3866C26.722 43.0487 26.2145 43.8383 25.8906 44.7041C25.5667 45.5696 25.4336 46.4918 25.5 47.411V53" stroke="white" stroke-width="4" stroke-linecap="round" stroke-linejoin="round"/>
<path d="M25.5 49.1054C19.5 51.0005 14.5 49.1054 11.5 43.2632" stroke="white" stroke-width="4" stroke-linecap="round" stroke-linejoin="round"/>
</svg>
