<svg width="61" height="60" viewBox="0 0 61 60" fill="none" xmlns="http://www.w3.org/2000/svg">
<path d="M48.5 8H12.5C10.29 8 8.5 9.79 8.5 12V48C8.5 50.21 10.29 52 12.5 52H48.5C50.71 52 52.5 50.21 52.5 48V12C52.5 9.79 50.71 8 48.5 8ZM30.5 40.76C30.5 44.314 28.32 46.306 24.7 46.306C21.124 46.306 18.846 44.216 18.846 40.836H22.72C22.73 42.09 23.478 42.882 24.634 42.882C25.822 42.882 26.46 42.134 26.46 40.726V29.996H30.5V40.76ZM41.462 46.306C37.444 46.306 34.916 44.414 34.848 41.354H38.7C38.798 42.51 39.952 43.246 41.626 43.246C43.134 43.246 44.17 42.52 44.17 41.474C44.17 40.594 43.476 40.12 41.66 39.758L39.57 39.34C36.664 38.79 35.168 37.206 35.168 34.708C35.168 31.604 37.656 29.568 41.484 29.568C45.204 29.568 47.778 31.582 47.844 34.52H44.114C44.026 33.398 42.958 32.616 41.536 32.616C40.118 32.616 39.184 33.288 39.184 34.344C39.184 35.214 39.888 35.72 41.56 36.05L43.604 36.446C46.742 37.052 48.15 38.47 48.15 40.99C48.152 44.304 45.622 46.306 41.462 46.306Z" fill="white"/>
</svg>
