<svg width="65" height="64" viewBox="0 0 65 64" fill="none" xmlns="http://www.w3.org/2000/svg">
<path d="M32.4883 6C31.7583 6 31.0284 6.17906 30.3984 6.53906L10.5781 17.9805C9.29813 18.7205 8.5 20.1216 8.5 21.6016V42.3594C8.5 43.8594 9.29813 45.2405 10.5781 45.9805L15.7812 48.9805C18.3013 50.2205 19.1998 50.2188 20.3398 50.2188C24.0798 50.2188 26.2188 47.9591 26.2188 44.0391V22.6211C26.2188 22.3011 25.9606 22.0391 25.6406 22.0391H23.1406C22.8006 22.0391 22.5586 22.3011 22.5586 22.6211V44.0195C22.5586 45.7795 20.7408 47.4991 17.8008 46.0391L12.3594 42.8984C12.1594 42.7984 12.0391 42.5794 12.0391 42.3594V21.6211C12.0391 21.3811 12.1594 21.1786 12.3594 21.0586L32.1797 9.62109C32.3597 9.50109 32.6008 9.50109 32.8008 9.62109L52.6211 21.0586C52.8211 21.1786 52.9414 21.3816 52.9414 21.6016V42.3594C52.9414 42.5794 52.8206 42.7984 52.6406 42.8984L32.8008 54.3594C32.6208 54.4594 32.3597 54.4594 32.1797 54.3594L27.0781 51.3398C26.9381 51.2398 26.7416 51.2208 26.6016 51.3008C25.1816 52.1008 24.9216 52.2002 23.6016 52.6602C23.2816 52.7602 22.7812 52.9595 23.7812 53.5195L30.3984 57.4414C31.0384 57.8014 31.7605 58 32.4805 58C33.2205 58 33.9381 57.8014 34.5781 57.4414L54.4219 45.9805C55.7019 45.2405 56.5 43.8594 56.5 42.3594V21.6211C56.5 20.1211 55.7019 18.74 54.4219 18L34.5781 6.53906C33.9481 6.17906 33.2183 6 32.4883 6ZM37.8203 22.0117C32.1603 22.0117 28.7812 24.4102 28.7812 28.4102C28.7812 32.7502 32.1381 33.9483 37.5781 34.4883C44.0781 35.1283 44.5781 36.0911 44.5781 37.3711C44.5781 39.5711 42.8011 40.5117 38.6211 40.5117C33.3611 40.5117 32.2003 39.1898 31.8203 36.5898C31.7803 36.3098 31.5417 36.1094 31.2617 36.1094H28.6797C28.3597 36.1094 28.1211 36.3719 28.1211 36.6719C28.1211 40.0119 29.9411 43.9883 38.6211 43.9883C44.9011 43.9883 48.5 41.5114 48.5 37.1914C48.5 32.9114 45.5995 31.7692 39.5195 30.9492C33.3395 30.1492 32.7188 29.7291 32.7188 28.2891C32.7188 27.0891 33.2603 25.5117 37.8203 25.5117C41.8803 25.5117 43.3995 26.3889 44.0195 29.1289C44.0795 29.3889 44.2981 29.5898 44.5781 29.5898H47.1602C47.3202 29.5898 47.4581 29.5106 47.5781 29.3906C47.6781 29.2906 47.7388 29.1292 47.7188 28.9492C47.3187 24.2292 44.1803 22.0117 37.8203 22.0117Z" fill="white"/>
</svg>
