<svg width="61" height="60" viewBox="0 0 61 60" fill="none" xmlns="http://www.w3.org/2000/svg">
<path d="M41.9656 4.78124C41.03 4.74978 40.0507 4.9129 39.0687 5.23124C37.1049 5.86792 35.047 7.10865 32.9352 8.82655C32.1075 9.4998 31.2723 10.2694 30.4344 11.0859C29.6149 10.2901 28.7969 9.53884 27.9875 8.88046C25.8773 7.16394 23.825 5.92507 21.8656 5.28983C19.9062 4.6546 17.9567 4.63491 16.3555 5.55937C14.7543 6.48382 13.7967 8.18082 13.3672 10.1953C12.9376 12.2098 12.9826 14.6088 13.4141 17.2945C13.5639 18.2274 13.78 19.2061 14.0234 20.2031C13.1085 20.4804 12.22 20.7719 11.3961 21.0937C8.90957 22.0649 6.85213 23.2268 5.3539 24.6094C3.85567 25.9919 2.88828 27.67 2.88828 29.5125C2.88828 31.355 3.85567 33.0307 5.3539 34.4133C6.85213 35.7959 8.90957 36.9601 11.3961 37.9312C12.2771 38.2753 13.2309 38.5852 14.2156 38.8781C13.8614 40.2015 13.5745 41.4857 13.3789 42.7031C12.9471 45.391 12.9015 47.7903 13.332 49.8094C13.7626 51.8284 14.7206 53.535 16.3297 54.4641C17.9388 55.3931 19.8971 55.3703 21.8609 54.7336C23.8248 54.0969 25.8803 52.8585 27.9922 51.1406C28.8122 50.4736 29.6417 49.7126 30.4719 48.9047C31.306 49.7171 32.1396 50.4823 32.9633 51.1523C35.0735 52.8689 37.1281 54.1077 39.0875 54.743C41.0469 55.3782 42.9941 55.3979 44.5953 54.4734C46.1965 53.549 47.154 51.852 47.5836 49.8375C48.0131 47.823 47.9658 45.424 47.5344 42.7383C47.3383 41.5176 47.0511 40.2315 46.6953 38.9039C47.7125 38.6038 48.6965 38.2857 49.6039 37.9312C52.0904 36.9601 54.1479 35.7959 55.6461 34.4133C57.1443 33.0307 58.1117 31.355 58.1117 29.5125C58.1117 27.67 57.1443 25.9919 55.6461 24.6094C54.1479 23.2268 52.0904 22.0649 49.6039 21.0937C48.7682 20.7673 47.866 20.472 46.9367 20.1914C47.1821 19.1883 47.4 18.2026 47.5508 17.2641C47.9826 14.5762 48.0282 12.1745 47.5977 10.1555C47.1671 8.1364 46.2068 6.43214 44.5977 5.50312C43.7931 5.0386 42.9012 4.8127 41.9656 4.78124ZM41.8555 7.22343C42.4426 7.23948 42.9434 7.3792 43.3719 7.62655C44.2287 8.12126 44.8621 9.0841 45.2 10.6687C45.5379 12.2534 45.5262 14.3944 45.1273 16.8773C44.9908 17.7274 44.7925 18.6284 44.5672 19.5516C42.1132 18.961 39.4244 18.5225 36.5586 18.2648C35.1189 16.2701 33.6391 14.4556 32.1477 12.8437C32.9362 12.074 33.7197 11.3541 34.4844 10.732C36.4352 9.14511 38.2821 8.06531 39.8234 7.56562C40.5941 7.31577 41.2683 7.20737 41.8555 7.22343ZM19.0836 7.23046C19.6741 7.21397 20.3498 7.32208 21.1227 7.57265C22.6684 8.07378 24.5185 9.15311 26.4711 10.7414C27.2203 11.3508 27.9865 12.055 28.7586 12.8062C27.2563 14.4309 25.7662 16.2644 24.3172 18.2766C21.4616 18.539 18.7823 18.9816 16.3391 19.575C16.1152 18.6563 15.9196 17.7589 15.7836 16.9125C15.3844 14.4274 15.3744 12.2837 15.7133 10.6945C16.0521 9.10531 16.6907 8.13755 17.5555 7.63827C17.9879 7.38863 18.4931 7.24694 19.0836 7.23046ZM30.4719 14.5711C31.4493 15.6348 32.4273 16.7991 33.3969 18.0516C32.444 18.0118 31.4795 17.9883 30.5 17.9883C29.5009 17.9883 28.5181 18.0126 27.5469 18.0539C28.5168 16.8004 29.4941 15.6357 30.4719 14.5711ZM30.5 20.4117C32.1319 20.4117 33.7224 20.4788 35.2695 20.5922C36.3341 22.1212 37.3744 23.7433 38.3656 25.4601C39.2366 26.9687 40.0248 28.475 40.7422 29.9625C40.0172 31.4697 39.2158 32.9964 38.3328 34.5258C37.5555 35.8721 36.7438 37.1507 35.9187 38.3836C34.1712 38.5296 32.3604 38.6109 30.5 38.6109C28.5948 38.6109 26.7433 38.5248 24.957 38.3719C24.1457 37.1567 23.3477 35.8951 22.5828 34.5703C21.7018 33.0444 20.9043 31.5229 20.1805 30.0187C20.9073 28.5061 21.7084 26.9738 22.5945 25.4391C23.5806 23.7312 24.6178 22.1185 25.6766 20.5969C27.2403 20.4809 28.8493 20.4117 30.5 20.4117ZM38.3609 20.8922C40.3382 21.139 42.1948 21.4818 43.9227 21.893C43.4098 23.5743 42.778 25.3306 42.0125 27.143C41.5155 26.1849 41.0007 25.2235 40.4445 24.2601C39.7709 23.0933 39.0704 21.9791 38.3609 20.8922ZM22.5125 20.9109C21.8176 21.9781 21.1338 23.0695 20.4734 24.2133C19.9101 25.189 19.3847 26.1633 18.882 27.1336C18.1231 25.3321 17.4952 23.5858 16.9859 21.9141C18.7016 21.502 20.5481 21.1606 22.5125 20.9109ZM46.2969 22.5305C47.1475 22.7878 47.9691 23.0564 48.7227 23.3508C51.0148 24.246 52.828 25.3062 54.0031 26.3906C55.1783 27.475 55.6883 28.5092 55.6883 29.5125C55.6883 30.5158 55.1783 31.5499 54.0031 32.6344C52.828 33.7188 51.0148 34.7789 48.7227 35.6742C47.8852 36.0013 46.9651 36.2979 46.0086 36.5789C45.3262 34.4684 44.4553 32.2665 43.4187 30.0187C44.6105 27.4381 45.5733 24.9219 46.2969 22.5305ZM14.6633 22.5422C15.3785 24.9097 16.329 27.401 17.5039 29.9555C16.4606 32.2163 15.5853 34.4307 14.9 36.5531C13.9771 36.2795 13.0882 35.9909 12.2773 35.6742C9.98515 34.7789 8.17201 33.7188 6.99687 32.6344C5.82172 31.5499 5.31171 30.5158 5.31171 29.5125C5.31171 28.5092 5.82172 27.475 6.99687 26.3906C8.17201 25.3062 9.98515 24.246 12.2773 23.3508C13.0193 23.061 13.8271 22.7962 14.6633 22.5422ZM30.5 24C27.2005 24 24.5 26.7005 24.5 30C24.5 33.2995 27.2005 36 30.5 36C33.7995 36 36.5 33.2995 36.5 30C36.5 26.7005 33.7995 24 30.5 24ZM30.5 26.4C32.5024 26.4 34.1 27.9976 34.1 30C34.1 32.0024 32.5024 33.6 30.5 33.6C28.4976 33.6 26.9 32.0024 26.9 30C26.9 27.9976 28.4976 26.4 30.5 26.4ZM42.043 32.8359C42.6723 34.3254 43.2193 35.7828 43.6789 37.1883C42.2358 37.5229 40.6991 37.8049 39.0828 38.0273C39.5481 37.2849 40.0076 36.5287 40.4562 35.7516C41.0187 34.7774 41.541 33.8046 42.043 32.8359ZM18.9102 32.8383C19.4148 33.8129 19.9403 34.7901 20.5062 35.7703C20.9493 36.5377 21.4017 37.2868 21.8609 38.0203C20.2494 37.7968 18.7175 37.5139 17.2789 37.1789C17.7364 35.7778 18.2837 34.3233 18.9102 32.8383ZM16.5875 39.5086C18.7593 40.0231 21.1133 40.4183 23.6094 40.6758C25.276 43.0863 27.0112 45.2511 28.7586 47.1445C27.9774 47.9062 27.2031 48.6211 26.4453 49.2375C24.4944 50.8244 22.6452 51.9019 21.1039 52.4016C19.5626 52.9012 18.4123 52.8353 17.5555 52.3406C16.6986 51.8459 16.0676 50.8831 15.7297 49.2984C15.3918 47.7138 15.4011 45.5751 15.8 43.0922C15.9809 41.9658 16.2514 40.7596 16.5875 39.5086ZM44.3727 39.518C44.7113 40.776 44.9829 41.9878 45.1648 43.1203C45.5641 45.6054 45.574 47.7467 45.2352 49.3359C44.8963 50.9251 44.2601 51.8952 43.3953 52.3945C42.5305 52.8938 41.3715 52.9613 39.8258 52.4601C38.28 51.959 36.4299 50.8773 34.4773 49.2891C33.7141 48.6682 32.9345 47.9499 32.1477 47.182C33.9064 45.2815 35.6546 43.1049 37.332 40.6805C39.8344 40.4247 42.1949 40.0318 44.3727 39.518ZM26.7406 40.9219C27.9727 40.989 29.2211 41.0344 30.5 41.0344C31.7366 41.0344 32.9445 40.9917 34.1375 40.9289C32.9179 42.5743 31.6748 44.0702 30.4367 45.4172C29.1993 44.0673 27.9586 42.5688 26.7406 40.9219Z" fill="white"/>
</svg>
