<svg width="65" height="64" viewBox="0 0 65 64" fill="none" xmlns="http://www.w3.org/2000/svg">
<g clip-path="url(#clip0_17_14)">
<path d="M55.568 35.584C53.332 35.596 51.396 36.132 49.772 36.932C49.178 35.748 48.578 34.704 48.476 33.93C48.358 33.026 48.222 32.486 48.364 31.408C48.506 30.33 49.13 28.804 49.12 28.69C49.11 28.576 48.98 28.026 47.69 28.018C46.4 28.008 45.298 28.266 45.168 28.606C45.038 28.946 44.79 29.712 44.636 30.512C44.41 31.682 42.062 35.852 40.728 38.034C40.292 37.182 39.922 36.432 39.844 35.838C39.726 34.934 39.59 34.394 39.732 33.316C39.874 32.238 40.498 30.712 40.488 30.598C40.478 30.484 40.348 29.934 39.058 29.926C37.768 29.916 36.666 30.174 36.536 30.514C36.406 30.854 36.268 31.65 36.004 32.42C35.74 33.19 32.618 40.146 31.8 41.95C31.384 42.868 31.02 43.606 30.764 44.11L30.762 44.108C30.762 44.108 30.746 44.142 30.72 44.198C30.5 44.628 30.37 44.864 30.37 44.864C30.37 44.864 30.372 44.868 30.374 44.872C30.2 45.188 30.014 45.48 29.922 45.48C29.858 45.48 29.728 44.642 29.95 43.49C30.414 41.076 31.53 37.314 31.52 37.184C31.514 37.118 31.728 36.462 30.792 36.118C29.882 35.784 29.558 36.34 29.474 36.342C29.394 36.344 29.334 36.538 29.334 36.538C29.334 36.538 30.348 32.306 27.4 32.306C25.558 32.306 23.004 34.322 21.746 36.15C20.952 36.584 19.254 37.51 17.45 38.5C16.758 38.88 16.052 39.268 15.382 39.638C15.336 39.588 15.292 39.538 15.244 39.488C11.67 35.674 5.06199 32.978 5.34199 27.85C5.44399 25.986 6.09199 21.078 18.038 15.126C27.824 10.25 35.658 11.592 37.012 14.566C38.946 18.814 32.824 26.712 22.662 27.85C18.79 28.284 16.752 26.784 16.244 26.224C15.71 25.636 15.63 25.61 15.432 25.72C15.108 25.9 15.314 26.42 15.432 26.728C15.736 27.518 16.98 28.918 19.104 29.614C20.972 30.226 25.518 30.564 31.016 28.436C37.174 26.054 41.982 19.428 40.57 13.89C39.134 8.25801 29.794 6.40601 20.954 9.54601C15.694 11.416 9.99799 14.35 5.90399 18.18C1.03599 22.734 0.257993 26.698 0.577993 28.354C1.71399 34.238 9.82599 38.07 13.074 40.91C12.914 40.998 12.764 41.082 12.626 41.156C10.998 41.962 4.81599 45.198 3.26799 48.616C1.51399 52.494 3.54799 55.276 4.89399 55.65C9.06599 56.81 13.346 54.722 15.646 51.292C17.946 47.862 17.664 43.396 16.61 41.356C16.596 41.33 16.582 41.306 16.568 41.28C16.988 41.032 17.418 40.778 17.842 40.528C18.67 40.042 19.484 39.588 20.19 39.204C19.796 40.286 19.506 41.584 19.356 43.458C19.18 45.66 20.082 48.504 21.262 49.624C21.782 50.116 22.408 50.128 22.804 50.128C24.178 50.128 24.804 48.986 25.494 47.634C26.34 45.976 27.092 44.046 27.092 44.046C27.092 44.046 26.15 49.258 28.718 49.258C29.654 49.258 30.596 48.044 31.014 47.426C31.016 47.432 31.016 47.436 31.016 47.436C31.016 47.436 31.04 47.396 31.088 47.314C31.186 47.166 31.24 47.07 31.24 47.07C31.24 47.07 31.242 47.06 31.244 47.044C31.62 46.39 32.454 44.902 33.706 42.446C35.322 39.274 36.872 35.3 36.872 35.3C36.872 35.3 37.016 36.272 37.488 37.878C37.766 38.824 38.356 39.868 38.822 40.87C38.448 41.39 38.216 41.69 38.216 41.69C38.216 41.69 38.218 41.696 38.222 41.706C37.922 42.104 37.586 42.534 37.234 42.952C35.958 44.472 34.438 46.206 34.236 46.708C33.996 47.298 34.052 47.732 34.516 48.082C34.854 48.338 35.456 48.376 36.086 48.334C37.232 48.256 38.04 47.972 38.438 47.8C39.058 47.58 39.78 47.236 40.46 46.738C41.712 45.818 42.466 44.502 42.394 42.758C42.354 41.798 42.048 40.844 41.66 39.946C41.774 39.782 41.888 39.618 42.002 39.452C43.976 36.568 45.506 33.398 45.506 33.398C45.506 33.398 45.65 34.37 46.122 35.976C46.362 36.79 46.832 37.676 47.256 38.546C45.4 40.054 44.25 41.804 43.85 42.954C43.112 45.08 43.69 46.042 44.774 46.262C45.266 46.362 45.96 46.136 46.482 45.916C47.132 45.7 47.912 45.342 48.642 44.806C49.894 43.886 51.096 42.598 51.024 40.854C50.99 40.06 50.776 39.272 50.484 38.516C52.056 37.86 54.092 37.496 56.686 37.8C62.25 38.45 63.34 41.924 63.132 43.378C62.924 44.832 61.756 45.632 61.366 45.872C60.976 46.114 60.856 46.198 60.89 46.376C60.938 46.636 61.118 46.626 61.45 46.57C61.908 46.492 64.372 45.388 64.476 42.704C64.614 39.296 61.35 35.554 55.568 35.584ZM12.686 50.042C10.844 52.052 8.26799 52.812 7.16399 52.172C5.97199 51.48 6.44399 48.522 8.70599 46.388C10.084 45.088 11.864 43.89 13.044 43.152C13.312 42.99 13.708 42.752 14.186 42.466C14.266 42.42 14.31 42.396 14.31 42.396L14.308 42.394C14.4 42.338 14.496 42.282 14.594 42.224C15.418 45.258 14.62 47.932 12.686 50.042ZM26.11 40.914C25.468 42.478 24.124 46.482 23.308 46.268C22.606 46.084 22.178 43.04 23.168 40.046C23.666 38.538 24.73 36.738 25.354 36.038C26.36 34.912 27.468 34.544 27.736 35.002C28.078 35.582 26.512 39.934 26.11 40.914ZM37.202 46.206C36.93 46.348 36.68 46.438 36.564 46.368C36.478 46.318 36.676 46.13 36.676 46.13C36.676 46.13 38.064 44.638 38.61 43.958C38.928 43.562 39.296 43.094 39.698 42.568C39.702 42.62 39.704 42.672 39.704 42.724C39.698 44.514 37.972 45.722 37.202 46.206ZM45.746 44.26C45.544 44.116 45.576 43.648 46.244 42.194C46.506 41.622 47.104 40.662 48.144 39.744C48.264 40.122 48.338 40.484 48.336 40.822C48.322 43.07 46.716 43.91 45.746 44.26Z" fill="white"/>
</g>
<defs>
<clipPath id="clip0_17_14">
<rect width="64" height="64" fill="white" transform="translate(0.5)"/>
</clipPath>
</defs>
</svg>
